<svg xmlns="http://www.w3.org/2000/svg" width="534" height="534" viewBox="0 0 534 534">
    <defs>
        <linearGradient id="gradient" x1="0%" y1="0%" x2="100%" y2="100%">
            <stop offset="0%" stop-color="#7df9ff"/>
            <stop offset="50%" stop-color="#29b36b"/>
            <stop offset="100%" stop-color="#fa9f3e"/>
        </linearGradient>
    </defs>
    <path fill="url(#gradient)" d="M431.27 438.05s-25.25-10.77-51.94-22.15v-25.26c28.01 19.08 56.73 38.64 56.73 38.64 4.91 3.48.81 11.03-4.79 8.77ZM154.67 143.23v-25.01l-52.05-22.08c-2.06-.88-4.52-.21-5.83 1.71-1.5 2.19-.94 5.17 1.25 6.67l56.63 38.71ZM534 267c0 51.34-38.78 93.8-88.58 99.64-3.86.45-7.78.69-11.75.69h-.35c-12.18-.2-25.47-3.21-39.62-8.31-5.02-2.19-9.82-4.77-14.37-7.71-4.23-2.74-8.24-5.78-12-9.11v91.46c0 4.06-.25 8.07-.72 12-5.95 49.69-48.35 88.34-99.61 88.34-55.33 0-100.33-45.01-100.33-100.34s45-100.33 100.33-100.33c17.78 0 34.49 4.65 48.99 12.8 1.81 1.02 3.6 2.09 5.34 3.22v46.33c-1.79-2.56-3.75-4.98-5.88-7.25-1.62-1.74-3.33-3.38-5.13-4.94-4.5-3.88-9.51-7.18-14.93-9.76-8.61-4.1-18.24-6.4-28.39-6.4-36.58 0-66.33 29.76-66.33 66.33s29.75 66.34 66.33 66.34c32.48 0 59.56-23.47 65.22-54.34.72-3.89 1.11-7.9 1.11-12v-104.46c-3.96-2.33-7.96-4.75-12-7.22-20.22-12.4-41.24-26.36-62.64-40.57-15.36-10.21-30.86-20.49-46.02-30.15-.41-.26-.82-.52-1.22-.78-3.62-2.3-7.21-4.55-10.78-6.77v23.29c0 4.06-.25 8.06-.72 12-5.95 49.68-48.35 88.33-99.62 88.33-55.32 0-100.33-45.01-100.33-100.33 0-51.27 38.65-93.67 88.33-99.62 3.94-.47 7.94-.72 12-.72.65 0 1.3.01 1.95.02 9.82.24 20.3 2.25 31.36 5.67 6.8 2.11 13.82 4.75 21.03 7.85 3.94 1.69 7.94 3.52 12 5.48v-85.35c0-4.06.25-8.06.72-12C173.34 38.64 215.74 0 267 0c55.32 0 100.33 45.01 100.33 100.33s-45.01 100.33-100.33 100.33c-17.77 0-34.47-4.65-48.96-12.78-1.83-1.03-3.62-2.1-5.37-3.24v-46.33c1.78 2.55 3.75 4.97 5.87 7.24 1.64 1.76 3.37 3.43 5.19 5 4.49 3.87 9.49 7.16 14.91 9.73 8.6 4.09 18.22 6.38 28.36 6.38 36.58 0 66.33-29.75 66.33-66.33s-29.75-66.33-66.33-66.33c-32.48 0-59.56 23.46-65.23 54.33-.71 3.89-1.1 7.9-1.1 12v103.66c3.96 2.32 7.96 4.71 12 7.17 20.9 12.75 42.66 27.2 64.83 41.92 14.62 9.71 29.37 19.51 43.83 28.75l1.08.69c3.66 2.34 7.3 4.64 10.92 6.89v-22.41c0-4.06.25-8.07.72-12 5.95-49.69 48.35-88.34 99.62-88.34 55.32 0 100.33 45.01 100.33 100.34ZM166.67 267c0-12.76-3.63-24.68-9.9-34.8-.67-1.09-1.37-2.15-2.1-3.19-8.14-11.6-19.89-20.49-33.61-25.01-5.83-1.92-12-3.06-18.41-3.28-.78-.03-1.56-.06-2.32-.06-4.1 0-8.1.4-12 1.11-30.86 5.67-54.33 32.75-54.33 65.23 0 36.57 29.76 66.33 66.33 66.33 32.48 0 59.56-23.47 65.23-54.33.71-3.9 1.11-7.9 1.11-12ZM500 267c0-36.58-29.76-66.34-66.33-66.34-32.48 0-59.56 23.47-65.23 54.34-.71 3.89-1.11 7.9-1.11 12 0 12.32 3.39 23.87 9.28 33.77.85 1.44 1.76 2.84 2.72 4.21 6.99 9.97 16.64 17.93 27.92 22.85 8.1 3.53 17.03 5.5 26.42 5.5h.26c4.1-.02 8.12-.43 12.01-1.16 30.73-5.77 54.06-32.79 54.06-65.17Z"/>
</svg>